<?xml version="1.0" encoding="utf-8"?>
<!-- Generator: Adobe Illustrator 21.0.0, SVG Export Plug-In . SVG Version: 6.00 Build 0)  -->
<svg version="1.1" id="Layer_1" xmlns="http://www.w3.org/2000/svg" xmlns:xlink="http://www.w3.org/1999/xlink" x="0px" y="0px"
	 viewBox="0 0 512 512" style="enable-background:new 0 0 512 512;" xml:space="preserve">
<style type="text/css">
	.st0{fill:#FF0000;}
</style>
<g>
	<g id="XMLID_1_">
		<g>
			<path class="st0" d="M182.2,165.9c0.1,36.1-29.3,65.5-65.5,65.5c-36.1,0-65.5-29.4-65.5-65.5s29.4-65.5,65.5-65.5
				S182.2,129.8,182.2,165.9z"/>
			<path d="M116.7,83.9c45.2,0,81.9,36.8,81.9,81.9s-36.8,81.9-81.9,81.9S34.8,211,34.8,165.8C34.8,120.7,71.5,83.9,116.7,83.9z
				 M116.7,231.4c36.2,0,65.6-29.4,65.5-65.5c0-36.1-29.4-65.5-65.5-65.5s-65.5,29.4-65.5,65.5S80.6,231.4,116.7,231.4z"/>
		</g>
		<g>
		</g>
	</g>
	<path d="M67.5,165.9h16.4c0-18.1,14.7-32.8,32.8-32.8v-16.4C89.6,116.7,67.5,138.8,67.5,165.9z"/>
	<rect x="92.1" y="43" width="49.2" height="16.4"/>
	<rect x="108.5" y="305.2" width="16.4" height="147.5"/>
	<rect x="51.2" y="329.7" width="16.4" height="98.3"/>
	<rect x="165.9" y="329.7" width="16.4" height="98.3"/>
	<path d="M247.8,100.3v32.8h-16.4V75.7C231.4,35,198.3,2,157.7,2h-82C35.1,2,2,35.1,2,75.7v360.5C2,476.9,35.1,510,75.7,510h81.9
		c40.7,0,73.7-33.1,73.7-73.7V247.8h16.4v32.8H510V100.3H247.8z M215,436.3c0,31.6-25.7,57.4-57.4,57.4H75.7
		c-31.6,0-57.4-25.7-57.4-57.4V75.7c0-31.6,25.7-57.4,57.4-57.4h81.9c31.6,0,57.4,25.7,57.4,57.4V436.3z M231.4,231.4v-81.9h16.4
		v81.9H231.4z M493.6,264.2H264.2V116.7h229.4V264.2z"/>
	<rect x="288.8" y="223.2" width="32.8" height="16.4"/>
</g>
</svg>
